STARTFONT 2.1
COMMENT
COMMENT Converted from OpenType font "Silkscreen-Regular.ttf" by "otf2bdf 3.0".
COMMENT
FONT -FreeType-Silkscreen-Medium-R-Normal--11-80-100-100-P-59-ISO10646-1
SIZE 8 100 100
FONTBOUNDINGBOX 14 13 -2 -2
STARTPROPERTIES 19
FOUNDRY "FreeType"
FAMILY_NAME "Silkscreen"
WEIGHT_NAME "Medium"
SLANT "R"
SETWIDTH_NAME "Normal"
ADD_STYLE_NAME ""
PIXEL_SIZE 11
POINT_SIZE 80
RESOLUTION_X 100
RESOLUTION_Y 100
SPACING "P"
AVERAGE_WIDTH 59
CHARSET_REGISTRY "ISO10646"
CHARSET_ENCODING "1"
FONT_ASCENT 11
FONT_DESCENT 2
COPYRIGHT "Copyright 2001 The Silkscreen Project Authors (https://github.com/googlefonts/silkscreen)"
_OTF_FONTFILE "Silkscreen-Regular.ttf"
_OTF_PSNAME "Silkscreen-Regular"
ENDPROPERTIES
CHARS 226
STARTCHAR 000D
ENCODING 13
SWIDTH 540 0
DWIDTH 6 0
BBX 0 0 0 0
BITMAP
ENDCHAR
STARTCHAR 0020
ENCODING 32
SWIDTH 540 0
DWIDTH 6 0
BBX 0 0 0 0
BITMAP
ENDCHAR
STARTCHAR 0021
ENCODING 33
SWIDTH 360 0
DWIDTH 4 0
BBX 2 7 1 0
BITMAP
C0
C0
C0
C0
00
00
C0
ENDCHAR
STARTCHAR 0022
ENCODING 34
SWIDTH 630 0
DWIDTH 7 0
BBX 5 3 1 4
BITMAP
D8
D8
D8
ENDCHAR
STARTCHAR 0023
ENCODING 35
SWIDTH 900 0
DWIDTH 10 0
BBX 7 7 1 0
BITMAP
2C
FE
2C
2C
FE
2C
2C
ENDCHAR
STARTCHAR 0024
ENCODING 36
SWIDTH 720 0
DWIDTH 8 0
BBX 6 10 1 -1
BITMAP
18
18
3C
C0
40
38
0C
08
F8
20
ENDCHAR
STARTCHAR 0025
ENCODING 37
SWIDTH 900 0
DWIDTH 10 0
BBX 7 7 1 0
BITMAP
EC
EC
EC
18
2E
2E
2E
ENDCHAR
STARTCHAR 0026
ENCODING 38
SWIDTH 720 0
DWIDTH 8 0
BBX 6 10 1 -1
BITMAP
18
18
3C
C0
40
38
C0
40
3C
18
ENDCHAR
STARTCHAR 0027
ENCODING 39
SWIDTH 360 0
DWIDTH 4 0
BBX 2 3 1 4
BITMAP
C0
C0
C0
ENDCHAR
STARTCHAR 0028
ENCODING 40
SWIDTH 540 0
DWIDTH 6 0
BBX 3 7 1 0
BITMAP
20
C0
C0
C0
C0
40
20
ENDCHAR
STARTCHAR 0029
ENCODING 41
SWIDTH 540 0
DWIDTH 6 0
BBX 3 7 1 0
BITMAP
C0
20
20
20
20
00
C0
ENDCHAR
STARTCHAR 002A
ENCODING 42
SWIDTH 900 0
DWIDTH 10 0
BBX 7 7 1 0
BITMAP
18
DA
58
3C
DA
18
18
ENDCHAR
STARTCHAR 002B
ENCODING 43
SWIDTH 900 0
DWIDTH 10 0
BBX 7 7 1 0
BITMAP
18
18
18
FE
18
18
18
ENDCHAR
STARTCHAR 002C
ENCODING 44
SWIDTH 540 0
DWIDTH 6 0
BBX 3 2 1 -1
BITMAP
20
C0
ENDCHAR
STARTCHAR 002D
ENCODING 45
SWIDTH 630 0
DWIDTH 7 0
BBX 5 1 1 3
BITMAP
F8
ENDCHAR
STARTCHAR 002E
ENCODING 46
SWIDTH 360 0
DWIDTH 4 0
BBX 2 1 1 0
BITMAP
C0
ENDCHAR
STARTCHAR 002F
ENCODING 47
SWIDTH 630 0
DWIDTH 7 0
BBX 5 7 1 0
BITMAP
18
18
18
20
C0
C0
C0
ENDCHAR
STARTCHAR 0030
ENCODING 48
SWIDTH 720 0
DWIDTH 8 0
BBX 6 7 1 0
BITMAP
38
CC
CC
CC
CC
48
38
ENDCHAR
STARTCHAR 0031
ENCODING 49
SWIDTH 630 0
DWIDTH 7 0
BBX 5 7 1 0
BITMAP
E0
20
20
20
20
20
F8
ENDCHAR
STARTCHAR 0032
ENCODING 50
SWIDTH 720 0
DWIDTH 8 0
BBX 6 7 1 0
BITMAP
F8
0C
00
38
C0
C0
FC
ENDCHAR
STARTCHAR 0033
ENCODING 51
SWIDTH 720 0
DWIDTH 8 0
BBX 6 7 1 0
BITMAP
F8
0C
00
38
0C
00
F8
ENDCHAR
STARTCHAR 0034
ENCODING 52
SWIDTH 720 0
DWIDTH 8 0
BBX 6 7 1 0
BITMAP
D8
D8
D8
FC
18
18
18
ENDCHAR
STARTCHAR 0035
ENCODING 53
SWIDTH 720 0
DWIDTH 8 0
BBX 6 7 1 0
BITMAP
FC
C0
C0
F8
0C
00
F8
ENDCHAR
STARTCHAR 0036
ENCODING 54
SWIDTH 720 0
DWIDTH 8 0
BBX 6 7 1 0
BITMAP
38
C0
C0
F8
CC
48
38
ENDCHAR
STARTCHAR 0037
ENCODING 55
SWIDTH 720 0
DWIDTH 8 0
BBX 6 7 1 0
BITMAP
FC
0C
0C
18
20
20
20
ENDCHAR
STARTCHAR 0038
ENCODING 56
SWIDTH 720 0
DWIDTH 8 0
BBX 6 7 1 0
BITMAP
38
CC
48
38
CC
48
38
ENDCHAR
STARTCHAR 0039
ENCODING 57
SWIDTH 720 0
DWIDTH 8 0
BBX 6 7 1 0
BITMAP
38
CC
4C
3C
0C
08
38
ENDCHAR
STARTCHAR 003A
ENCODING 58
SWIDTH 360 0
DWIDTH 4 0
BBX 2 4 1 2
BITMAP
C0
00
00
C0
ENDCHAR
STARTCHAR 003B
ENCODING 59
SWIDTH 540 0
DWIDTH 6 0
BBX 3 6 1 0
BITMAP
20
00
00
20
00
C0
ENDCHAR
STARTCHAR 003C
ENCODING 60
SWIDTH 630 0
DWIDTH 7 0
BBX 5 7 1 0
BITMAP
18
20
00
C0
20
10
18
ENDCHAR
STARTCHAR 003D
ENCODING 61
SWIDTH 630 0
DWIDTH 7 0
BBX 5 4 1 2
BITMAP
F8
00
00
F8
ENDCHAR
STARTCHAR 003E
ENCODING 62
SWIDTH 630 0
DWIDTH 7 0
BBX 5 7 1 0
BITMAP
C0
20
10
18
20
00
C0
ENDCHAR
STARTCHAR 003F
ENCODING 63
SWIDTH 720 0
DWIDTH 8 0
BBX 6 7 1 0
BITMAP
F8
0C
00
38
00
00
20
ENDCHAR
STARTCHAR 0040
ENCODING 64
SWIDTH 900 0
DWIDTH 10 0
BBX 7 7 1 0
BITMAP
3C
DA
DC
DC
C0
40
3C
ENDCHAR
STARTCHAR 0041
ENCODING 65
SWIDTH 720 0
DWIDTH 8 0
BBX 6 7 1 0
BITMAP
38
CC
CC
FC
CC
CC
CC
ENDCHAR
STARTCHAR 0042
ENCODING 66
SWIDTH 720 0
DWIDTH 8 0
BBX 6 7 1 0
BITMAP
F8
CC
CC
FC
CC
C8
F8
ENDCHAR
STARTCHAR 0043
ENCODING 67
SWIDTH 720 0
DWIDTH 8 0
BBX 6 7 1 0
BITMAP
38
CC
C0
C0
CC
40
38
ENDCHAR
STARTCHAR 0044
ENCODING 68
SWIDTH 720 0
DWIDTH 8 0
BBX 6 7 1 0
BITMAP
F8
CC
CC
CC
CC
C8
F8
ENDCHAR
STARTCHAR 0045
ENCODING 69
SWIDTH 630 0
DWIDTH 7 0
BBX 5 7 1 0
BITMAP
F8
C0
C0
F8
C0
C0
F8
ENDCHAR
STARTCHAR 0046
ENCODING 70
SWIDTH 630 0
DWIDTH 7 0
BBX 5 7 1 0
BITMAP
F8
C0
C0
F8
C0
C0
C0
ENDCHAR
STARTCHAR 0047
ENCODING 71
SWIDTH 720 0
DWIDTH 8 0
BBX 6 7 1 0
BITMAP
3C
C0
C0
DC
CC
00
38
ENDCHAR
STARTCHAR 0048
ENCODING 72
SWIDTH 720 0
DWIDTH 8 0
BBX 6 7 1 0
BITMAP
CC
CC
CC
FC
CC
CC
CC
ENDCHAR
STARTCHAR 0049
ENCODING 73
SWIDTH 360 0
DWIDTH 4 0
BBX 2 7 1 0
BITMAP
C0
C0
C0
C0
C0
C0
C0
ENDCHAR
STARTCHAR 004A
ENCODING 74
SWIDTH 720 0
DWIDTH 8 0
BBX 6 7 1 0
BITMAP
0C
0C
0C
0C
0C
CC
38
ENDCHAR
STARTCHAR 004B
ENCODING 75
SWIDTH 720 0
DWIDTH 8 0
BBX 6 7 1 0
BITMAP
CC
D8
C0
E0
D8
C8
CC
ENDCHAR
STARTCHAR 004C
ENCODING 76
SWIDTH 630 0
DWIDTH 7 0
BBX 5 7 1 0
BITMAP
C0
C0
C0
C0
C0
C0
F8
ENDCHAR
STARTCHAR 004D
ENCODING 77
SWIDTH 900 0
DWIDTH 10 0
BBX 7 7 1 0
BITMAP
C2
EE
D2
DA
C2
C2
C2
ENDCHAR
STARTCHAR 004E
ENCODING 78
SWIDTH 900 0
DWIDTH 10 0
BBX 7 7 1 0
BITMAP
C2
E2
D2
DA
CE
C2
C2
ENDCHAR
STARTCHAR 004F
ENCODING 79
SWIDTH 720 0
DWIDTH 8 0
BBX 6 7 1 0
BITMAP
38
CC
CC
CC
CC
48
38
ENDCHAR
STARTCHAR 0050
ENCODING 80
SWIDTH 720 0
DWIDTH 8 0
BBX 6 7 1 0
BITMAP
F8
CC
C8
F8
C0
C0
C0
ENDCHAR
STARTCHAR 0051
ENCODING 81
SWIDTH 720 0
DWIDTH 8 0
BBX 6 8 1 -1
BITMAP
38
CC
CC
CC
CC
48
38
0C
ENDCHAR
STARTCHAR 0052
ENCODING 82
SWIDTH 720 0
DWIDTH 8 0
BBX 6 7 1 0
BITMAP
F8
CC
C8
F8
D8
D8
CC
ENDCHAR
STARTCHAR 0053
ENCODING 83
SWIDTH 720 0
DWIDTH 8 0
BBX 6 7 1 0
BITMAP
3C
C0
40
38
0C
00
F8
ENDCHAR
STARTCHAR 0054
ENCODING 84
SWIDTH 630 0
DWIDTH 7 0
BBX 5 7 1 0
BITMAP
F8
20
20
20
20
20
20
ENDCHAR
STARTCHAR 0055
ENCODING 85
SWIDTH 720 0
DWIDTH 8 0
BBX 6 7 1 0
BITMAP
CC
CC
CC
CC
CC
CC
38
ENDCHAR
STARTCHAR 0056
ENCODING 86
SWIDTH 900 0
DWIDTH 10 0
BBX 7 7 1 0
BITMAP
C2
C2
C2
2C
2C
2C
18
ENDCHAR
STARTCHAR 0057
ENCODING 87
SWIDTH 900 0
DWIDTH 10 0
BBX 7 7 1 0
BITMAP
C2
C2
DA
DA
DA
DA
2C
ENDCHAR
STARTCHAR 0058
ENCODING 88
SWIDTH 900 0
DWIDTH 10 0
BBX 7 7 1 0
BITMAP
C2
2C
10
18
2C
04
C2
ENDCHAR
STARTCHAR 0059
ENCODING 89
SWIDTH 900 0
DWIDTH 10 0
BBX 7 7 1 0
BITMAP
C2
2C
10
18
18
18
18
ENDCHAR
STARTCHAR 005A
ENCODING 90
SWIDTH 630 0
DWIDTH 7 0
BBX 5 7 1 0
BITMAP
F8
18
18
20
C0
C0
F8
ENDCHAR
STARTCHAR 005B
ENCODING 91
SWIDTH 540 0
DWIDTH 6 0
BBX 3 7 1 0
BITMAP
E0
C0
C0
C0
C0
C0
E0
ENDCHAR
STARTCHAR 005C
ENCODING 92
SWIDTH 630 0
DWIDTH 7 0
BBX 5 7 1 0
BITMAP
C0
C0
C0
20
18
18
18
ENDCHAR
STARTCHAR 005D
ENCODING 93
SWIDTH 540 0
DWIDTH 6 0
BBX 3 7 1 0
BITMAP
E0
20
20
20
20
20
E0
ENDCHAR
STARTCHAR 005E
ENCODING 94
SWIDTH 630 0
DWIDTH 7 0
BBX 5 2 1 6
BITMAP
20
D8
ENDCHAR
STARTCHAR 005F
ENCODING 95
SWIDTH 720 0
DWIDTH 8 0
BBX 6 1 1 -1
BITMAP
FC
ENDCHAR
STARTCHAR 0060
ENCODING 96
SWIDTH 540 0
DWIDTH 6 0
BBX 3 2 1 9
BITMAP
C0
20
ENDCHAR
STARTCHAR 0061
ENCODING 97
SWIDTH 720 0
DWIDTH 8 0
BBX 6 7 1 0
BITMAP
38
CC
CC
FC
CC
CC
CC
ENDCHAR
STARTCHAR 0062
ENCODING 98
SWIDTH 720 0
DWIDTH 8 0
BBX 6 7 1 0
BITMAP
F8
CC
CC
FC
CC
C8
F8
ENDCHAR
STARTCHAR 0063
ENCODING 99
SWIDTH 720 0
DWIDTH 8 0
BBX 6 7 1 0
BITMAP
38
CC
C0
C0
CC
40
38
ENDCHAR
STARTCHAR 0064
ENCODING 100
SWIDTH 720 0
DWIDTH 8 0
BBX 6 7 1 0
BITMAP
F8
CC
CC
CC
CC
C8
F8
ENDCHAR
STARTCHAR 0065
ENCODING 101
SWIDTH 630 0
DWIDTH 7 0
BBX 5 7 1 0
BITMAP
F8
C0
C0
F8
C0
C0
F8
ENDCHAR
STARTCHAR 0066
ENCODING 102
SWIDTH 630 0
DWIDTH 7 0
BBX 5 7 1 0
BITMAP
F8
C0
C0
F8
C0
C0
C0
ENDCHAR
STARTCHAR 0067
ENCODING 103
SWIDTH 720 0
DWIDTH 8 0
BBX 6 7 1 0
BITMAP
3C
C0
C0
DC
CC
00
38
ENDCHAR
STARTCHAR 0068
ENCODING 104
SWIDTH 720 0
DWIDTH 8 0
BBX 6 7 1 0
BITMAP
CC
CC
CC
FC
CC
CC
CC
ENDCHAR
STARTCHAR 0069
ENCODING 105
SWIDTH 360 0
DWIDTH 4 0
BBX 2 7 1 0
BITMAP
C0
C0
C0
C0
C0
C0
C0
ENDCHAR
STARTCHAR 006A
ENCODING 106
SWIDTH 720 0
DWIDTH 8 0
BBX 6 7 1 0
BITMAP
0C
0C
0C
0C
0C
CC
38
ENDCHAR
STARTCHAR 006B
ENCODING 107
SWIDTH 720 0
DWIDTH 8 0
BBX 6 7 1 0
BITMAP
CC
D8
C0
E0
D8
C8
CC
ENDCHAR
STARTCHAR 006C
ENCODING 108
SWIDTH 630 0
DWIDTH 7 0
BBX 5 7 1 0
BITMAP
C0
C0
C0
C0
C0
C0
F8
ENDCHAR
STARTCHAR 006D
ENCODING 109
SWIDTH 900 0
DWIDTH 10 0
BBX 7 7 1 0
BITMAP
C2
EE
D2
DA
C2
C2
C2
ENDCHAR
STARTCHAR 006E
ENCODING 110
SWIDTH 900 0
DWIDTH 10 0
BBX 7 7 1 0
BITMAP
C2
E2
D2
DA
CE
C2
C2
ENDCHAR
STARTCHAR 006F
ENCODING 111
SWIDTH 720 0
DWIDTH 8 0
BBX 6 7 1 0
BITMAP
38
CC
CC
CC
CC
48
38
ENDCHAR
STARTCHAR 0070
ENCODING 112
SWIDTH 720 0
DWIDTH 8 0
BBX 6 7 1 0
BITMAP
F8
CC
C8
F8
C0
C0
C0
ENDCHAR
STARTCHAR 0071
ENCODING 113
SWIDTH 720 0
DWIDTH 8 0
BBX 6 8 1 -1
BITMAP
38
CC
CC
CC
CC
48
38
0C
ENDCHAR
STARTCHAR 0072
ENCODING 114
SWIDTH 720 0
DWIDTH 8 0
BBX 6 7 1 0
BITMAP
F8
CC
C8
F8
D8
D8
CC
ENDCHAR
STARTCHAR 0073
ENCODING 115
SWIDTH 720 0
DWIDTH 8 0
BBX 6 7 1 0
BITMAP
3C
C0
40
38
0C
00
F8
ENDCHAR
STARTCHAR 0074
ENCODING 116
SWIDTH 630 0
DWIDTH 7 0
BBX 5 7 1 0
BITMAP
F8
20
20
20
20
20
20
ENDCHAR
STARTCHAR 0075
ENCODING 117
SWIDTH 720 0
DWIDTH 8 0
BBX 6 7 1 0
BITMAP
CC
CC
CC
CC
CC
CC
38
ENDCHAR
STARTCHAR 0076
ENCODING 118
SWIDTH 900 0
DWIDTH 10 0
BBX 7 7 1 0
BITMAP
C2
C2
C2
2C
2C
2C
18
ENDCHAR
STARTCHAR 0077
ENCODING 119
SWIDTH 900 0
DWIDTH 10 0
BBX 7 7 1 0
BITMAP
C2
C2
DA
DA
DA
DA
2C
ENDCHAR
STARTCHAR 0078
ENCODING 120
SWIDTH 900 0
DWIDTH 10 0
BBX 7 7 1 0
BITMAP
C2
2C
10
18
2C
04
C2
ENDCHAR
STARTCHAR 0079
ENCODING 121
SWIDTH 900 0
DWIDTH 10 0
BBX 7 7 1 0
BITMAP
C2
2C
10
18
18
18
18
ENDCHAR
STARTCHAR 007A
ENCODING 122
SWIDTH 630 0
DWIDTH 7 0
BBX 5 7 1 0
BITMAP
F8
18
18
20
C0
C0
F8
ENDCHAR
STARTCHAR 007B
ENCODING 123
SWIDTH 630 0
DWIDTH 7 0
BBX 5 7 1 0
BITMAP
38
20
20
C0
20
20
38
ENDCHAR
STARTCHAR 007C
ENCODING 124
SWIDTH 360 0
DWIDTH 4 0
BBX 2 10 1 -1
BITMAP
C0
C0
C0
C0
C0
C0
C0
C0
C0
C0
ENDCHAR
STARTCHAR 007D
ENCODING 125
SWIDTH 630 0
DWIDTH 7 0
BBX 5 7 1 0
BITMAP
E0
20
20
18
20
20
E0
ENDCHAR
STARTCHAR 007E
ENCODING 126
SWIDTH 720 0
DWIDTH 8 0
BBX 6 2 1 5
BITMAP
2C
D8
ENDCHAR
STARTCHAR 00A0
ENCODING 160
SWIDTH 540 0
DWIDTH 6 0
BBX 0 0 0 0
BITMAP
ENDCHAR
STARTCHAR 00A1
ENCODING 161
SWIDTH 360 0
DWIDTH 4 0
BBX 2 7 1 0
BITMAP
C0
00
00
C0
C0
C0
C0
ENDCHAR
STARTCHAR 00A2
ENCODING 162
SWIDTH 630 0
DWIDTH 7 0
BBX 5 7 1 0
BITMAP
20
F8
C0
C0
F8
20
20
ENDCHAR
STARTCHAR 00A3
ENCODING 163
SWIDTH 720 0
DWIDTH 8 0
BBX 6 7 1 0
BITMAP
1C
18
18
F8
20
20
FC
ENDCHAR
STARTCHAR 00A4
ENCODING 164
SWIDTH 900 0
DWIDTH 10 0
BBX 7 7 1 0
BITMAP
DA
2C
2C
2C
2C
5C
DA
ENDCHAR
STARTCHAR 00A5
ENCODING 165
SWIDTH 900 0
DWIDTH 10 0
BBX 7 7 1 0
BITMAP
C2
3C
18
18
3C
18
18
ENDCHAR
STARTCHAR 00A6
ENCODING 166
SWIDTH 360 0
DWIDTH 4 0
BBX 2 7 1 0
BITMAP
C0
C0
C0
00
C0
C0
C0
ENDCHAR
STARTCHAR 00A7
ENCODING 167
SWIDTH 720 0
DWIDTH 8 0
BBX 6 9 1 -1
BITMAP
38
C0
38
48
CC
38
08
0C
38
ENDCHAR
STARTCHAR 00A8
ENCODING 168
SWIDTH 630 0
DWIDTH 7 0
BBX 5 1 1 10
BITMAP
D8
ENDCHAR
STARTCHAR 00A9
ENCODING 169
SWIDTH 1080 0
DWIDTH 12 0
BBX 10 9 1 -1
BITMAP
3F80
C040
DE40
D840
D840
DE40
C040
C040
3F80
ENDCHAR
STARTCHAR 00AA
ENCODING 170
SWIDTH 630 0
DWIDTH 7 0
BBX 5 4 1 3
BITMAP
20
D8
58
38
ENDCHAR
STARTCHAR 00AB
ENCODING 171
SWIDTH 900 0
DWIDTH 10 0
BBX 7 4 1 2
BITMAP
22
44
CC
22
ENDCHAR
STARTCHAR 00AC
ENCODING 172
SWIDTH 720 0
DWIDTH 8 0
BBX 6 3 1 1
BITMAP
FC
0C
0C
ENDCHAR
STARTCHAR 00AD
ENCODING 173
SWIDTH 0 0
DWIDTH 0 0
BBX 4 1 -2 3
BITMAP
F0
ENDCHAR
STARTCHAR 00AE
ENCODING 174
SWIDTH 1080 0
DWIDTH 12 0
BBX 10 9 1 -1
BITMAP
3F80
C040
CE40
C840
D840
D840
D840
C040
3F80
ENDCHAR
STARTCHAR 00AF
ENCODING 175
SWIDTH 720 0
DWIDTH 8 0
BBX 6 1 1 6
BITMAP
FC
ENDCHAR
STARTCHAR 00B0
ENCODING 176
SWIDTH 630 0
DWIDTH 7 0
BBX 5 4 1 3
BITMAP
20
50
D8
20
ENDCHAR
STARTCHAR 00B1
ENCODING 177
SWIDTH 900 0
DWIDTH 10 0
BBX 7 8 1 -1
BITMAP
18
18
18
FE
18
18
18
FE
ENDCHAR
STARTCHAR 00B2
ENCODING 178
SWIDTH 630 0
DWIDTH 7 0
BBX 5 6 1 1
BITMAP
E0
10
18
20
20
F8
ENDCHAR
STARTCHAR 00B3
ENCODING 179
SWIDTH 630 0
DWIDTH 7 0
BBX 5 6 1 1
BITMAP
E0
38
38
18
18
F8
ENDCHAR
STARTCHAR 00B4
ENCODING 180
SWIDTH 540 0
DWIDTH 6 0
BBX 3 2 1 9
BITMAP
20
C0
ENDCHAR
STARTCHAR 00B5
ENCODING 181
SWIDTH 720 0
DWIDTH 8 0
BBX 6 8 1 -1
BITMAP
CC
CC
CC
CC
CC
CC
F8
C0
ENDCHAR
STARTCHAR 00B6
ENCODING 182
SWIDTH 900 0
DWIDTH 10 0
BBX 7 7 1 0
BITMAP
3E
DA
5A
3E
1A
1A
1A
ENDCHAR
STARTCHAR 00B7
ENCODING 183
SWIDTH 360 0
DWIDTH 4 0
BBX 2 1 1 3
BITMAP
C0
ENDCHAR
STARTCHAR 00B8
ENCODING 184
SWIDTH 540 0
DWIDTH 6 0
BBX 3 2 1 -2
BITMAP
20
C0
ENDCHAR
STARTCHAR 00B9
ENCODING 185
SWIDTH 540 0
DWIDTH 6 0
BBX 3 6 1 1
BITMAP
E0
20
20
20
20
20
ENDCHAR
STARTCHAR 00BA
ENCODING 186
SWIDTH 630 0
DWIDTH 7 0
BBX 5 4 1 3
BITMAP
20
D8
50
20
ENDCHAR
STARTCHAR 00BB
ENCODING 187
SWIDTH 900 0
DWIDTH 10 0
BBX 7 4 1 2
BITMAP
CC
44
22
CC
ENDCHAR
STARTCHAR 00BC
ENCODING 188
SWIDTH 1080 0
DWIDTH 12 0
BBX 10 7 1 0
BITMAP
CC00
CC00
CC00
DA40
23C0
2040
2040
ENDCHAR
STARTCHAR 00BD
ENCODING 189
SWIDTH 1080 0
DWIDTH 12 0
BBX 10 7 1 0
BITMAP
CC00
CC00
CF80
D840
2180
2180
23C0
ENDCHAR
STARTCHAR 00BE
ENCODING 190
SWIDTH 1260 0
DWIDTH 14 0
BBX 11 7 1 0
BITMAP
E200
3A00
3A00
1DA0
F9E0
1820
1820
ENDCHAR
STARTCHAR 00BF
ENCODING 191
SWIDTH 720 0
DWIDTH 8 0
BBX 6 7 1 0
BITMAP
18
00
00
38
C0
40
3C
ENDCHAR
STARTCHAR 00C0
ENCODING 192
SWIDTH 720 0
DWIDTH 8 0
BBX 6 11 1 0
BITMAP
20
18
00
00
38
CC
CC
FC
CC
CC
CC
ENDCHAR
STARTCHAR 00C1
ENCODING 193
SWIDTH 720 0
DWIDTH 8 0
BBX 6 11 1 0
BITMAP
18
20
00
00
38
CC
CC
FC
CC
CC
CC
ENDCHAR
STARTCHAR 00C2
ENCODING 194
SWIDTH 720 0
DWIDTH 8 0
BBX 6 11 1 0
BITMAP
38
CC
00
00
38
CC
CC
FC
CC
CC
CC
ENDCHAR
STARTCHAR 00C3
ENCODING 195
SWIDTH 720 0
DWIDTH 8 0
BBX 6 11 1 0
BITMAP
2C
D8
00
00
38
CC
CC
FC
CC
CC
CC
ENDCHAR
STARTCHAR 00C4
ENCODING 196
SWIDTH 720 0
DWIDTH 8 0
BBX 6 10 1 0
BITMAP
CC
00
00
38
CC
CC
FC
CC
CC
CC
ENDCHAR
STARTCHAR 00C5
ENCODING 197
SWIDTH 720 0
DWIDTH 8 0
BBX 6 11 1 0
BITMAP
CC
38
00
00
38
CC
CC
FC
CC
CC
CC
ENDCHAR
STARTCHAR 00C6
ENCODING 198
SWIDTH 900 0
DWIDTH 10 0
BBX 7 7 1 0
BITMAP
3E
D8
D8
FE
D8
D8
DE
ENDCHAR
STARTCHAR 00C7
ENCODING 199
SWIDTH 720 0
DWIDTH 8 0
BBX 6 9 1 -2
BITMAP
38
CC
C0
C0
CC
40
38
20
C0
ENDCHAR
STARTCHAR 00C8
ENCODING 200
SWIDTH 630 0
DWIDTH 7 0
BBX 5 11 1 0
BITMAP
C0
20
00
00
F8
C0
C0
F8
C0
C0
F8
ENDCHAR
STARTCHAR 00C9
ENCODING 201
SWIDTH 630 0
DWIDTH 7 0
BBX 5 11 1 0
BITMAP
18
20
00
00
F8
C0
C0
F8
C0
C0
F8
ENDCHAR
STARTCHAR 00CA
ENCODING 202
SWIDTH 630 0
DWIDTH 7 0
BBX 5 11 1 0
BITMAP
20
D8
00
00
F8
C0
C0
F8
C0
C0
F8
ENDCHAR
STARTCHAR 00CB
ENCODING 203
SWIDTH 630 0
DWIDTH 7 0
BBX 5 10 1 0
BITMAP
D8
00
00
F8
C0
C0
F8
C0
C0
F8
ENDCHAR
STARTCHAR 00CC
ENCODING 204
SWIDTH 360 0
DWIDTH 4 0
BBX 3 11 0 0
BITMAP
80
60
00
00
60
60
60
60
60
60
60
ENDCHAR
STARTCHAR 00CD
ENCODING 205
SWIDTH 360 0
DWIDTH 4 0
BBX 3 11 1 0
BITMAP
20
C0
00
00
C0
C0
C0
C0
C0
C0
C0
ENDCHAR
STARTCHAR 00CE
ENCODING 206
SWIDTH 360 0
DWIDTH 4 0
BBX 4 11 0 0
BITMAP
60
90
00
00
60
60
60
60
60
60
60
ENDCHAR
STARTCHAR 00CF
ENCODING 207
SWIDTH 360 0
DWIDTH 4 0
BBX 4 10 0 0
BITMAP
90
00
00
60
60
60
60
60
60
60
ENDCHAR
STARTCHAR 00D0
ENCODING 208
SWIDTH 900 0
DWIDTH 10 0
BBX 7 7 1 0
BITMAP
3C
22
22
FA
22
24
3C
ENDCHAR
STARTCHAR 00D1
ENCODING 209
SWIDTH 900 0
DWIDTH 10 0
BBX 7 11 1 0
BITMAP
1A
2C
00
00
C2
E2
D2
DA
CE
C2
C2
ENDCHAR
STARTCHAR 00D2
ENCODING 210
SWIDTH 720 0
DWIDTH 8 0
BBX 6 11 1 0
BITMAP
20
18
00
00
38
CC
CC
CC
CC
48
38
ENDCHAR
STARTCHAR 00D3
ENCODING 211
SWIDTH 720 0
DWIDTH 8 0
BBX 6 11 1 0
BITMAP
18
20
00
00
38
CC
CC
CC
CC
48
38
ENDCHAR
STARTCHAR 00D4
ENCODING 212
SWIDTH 720 0
DWIDTH 8 0
BBX 6 11 1 0
BITMAP
30
48
00
00
38
CC
CC
CC
CC
48
38
ENDCHAR
STARTCHAR 00D5
ENCODING 213
SWIDTH 720 0
DWIDTH 8 0
BBX 6 11 1 0
BITMAP
2C
D8
00
00
38
CC
CC
CC
CC
48
38
ENDCHAR
STARTCHAR 00D6
ENCODING 214
SWIDTH 720 0
DWIDTH 8 0
BBX 6 10 1 0
BITMAP
48
00
00
38
CC
CC
CC
CC
48
38
ENDCHAR
STARTCHAR 00D7
ENCODING 215
SWIDTH 630 0
DWIDTH 7 0
BBX 5 4 1 2
BITMAP
D8
40
20
D8
ENDCHAR
STARTCHAR 00D8
ENCODING 216
SWIDTH 900 0
DWIDTH 10 0
BBX 7 7 1 0
BITMAP
3C
CE
CE
DA
E2
24
3C
ENDCHAR
STARTCHAR 00D9
ENCODING 217
SWIDTH 720 0
DWIDTH 8 0
BBX 6 11 1 0
BITMAP
20
18
00
00
CC
CC
CC
CC
CC
CC
38
ENDCHAR
STARTCHAR 00DA
ENCODING 218
SWIDTH 720 0
DWIDTH 8 0
BBX 6 11 1 0
BITMAP
18
20
00
00
CC
CC
CC
CC
CC
CC
38
ENDCHAR
STARTCHAR 00DB
ENCODING 219
SWIDTH 720 0
DWIDTH 8 0
BBX 6 11 1 0
BITMAP
30
48
00
00
CC
CC
CC
CC
CC
CC
38
ENDCHAR
STARTCHAR 00DC
ENCODING 220
SWIDTH 720 0
DWIDTH 8 0
BBX 6 10 1 0
BITMAP
48
00
00
CC
CC
CC
CC
CC
CC
38
ENDCHAR
STARTCHAR 00DD
ENCODING 221
SWIDTH 900 0
DWIDTH 10 0
BBX 7 11 1 0
BITMAP
08
30
00
00
C2
2C
10
18
18
18
18
ENDCHAR
STARTCHAR 00DE
ENCODING 222
SWIDTH 630 0
DWIDTH 7 0
BBX 5 7 1 0
BITMAP
C0
E0
D0
D8
E0
C0
C0
ENDCHAR
STARTCHAR 00DF
ENCODING 223
SWIDTH 720 0
DWIDTH 8 0
BBX 6 7 1 0
BITMAP
38
CC
C8
D8
CC
C8
D8
ENDCHAR
STARTCHAR 00E0
ENCODING 224
SWIDTH 720 0
DWIDTH 8 0
BBX 6 11 1 0
BITMAP
20
18
00
00
38
CC
CC
FC
CC
CC
CC
ENDCHAR
STARTCHAR 00E1
ENCODING 225
SWIDTH 720 0
DWIDTH 8 0
BBX 6 11 1 0
BITMAP
18
20
00
00
38
CC
CC
FC
CC
CC
CC
ENDCHAR
STARTCHAR 00E2
ENCODING 226
SWIDTH 720 0
DWIDTH 8 0
BBX 6 11 1 0
BITMAP
38
CC
00
00
38
CC
CC
FC
CC
CC
CC
ENDCHAR
STARTCHAR 00E3
ENCODING 227
SWIDTH 720 0
DWIDTH 8 0
BBX 6 11 1 0
BITMAP
2C
D8
00
00
38
CC
CC
FC
CC
CC
CC
ENDCHAR
STARTCHAR 00E4
ENCODING 228
SWIDTH 720 0
DWIDTH 8 0
BBX 6 10 1 0
BITMAP
CC
00
00
38
CC
CC
FC
CC
CC
CC
ENDCHAR
STARTCHAR 00E5
ENCODING 229
SWIDTH 720 0
DWIDTH 8 0
BBX 6 11 1 0
BITMAP
CC
38
00
00
38
CC
CC
FC
CC
CC
CC
ENDCHAR
STARTCHAR 00E6
ENCODING 230
SWIDTH 900 0
DWIDTH 10 0
BBX 7 7 1 0
BITMAP
3E
D8
D8
FE
D8
D8
DE
ENDCHAR
STARTCHAR 00E7
ENCODING 231
SWIDTH 720 0
DWIDTH 8 0
BBX 6 9 1 -2
BITMAP
38
CC
C0
C0
CC
40
38
20
C0
ENDCHAR
STARTCHAR 00E8
ENCODING 232
SWIDTH 630 0
DWIDTH 7 0
BBX 5 11 1 0
BITMAP
C0
20
00
00
F8
C0
C0
F8
C0
C0
F8
ENDCHAR
STARTCHAR 00E9
ENCODING 233
SWIDTH 630 0
DWIDTH 7 0
BBX 5 11 1 0
BITMAP
18
20
00
00
F8
C0
C0
F8
C0
C0
F8
ENDCHAR
STARTCHAR 00EA
ENCODING 234
SWIDTH 630 0
DWIDTH 7 0
BBX 5 11 1 0
BITMAP
20
D8
00
00
F8
C0
C0
F8
C0
C0
F8
ENDCHAR
STARTCHAR 00EB
ENCODING 235
SWIDTH 630 0
DWIDTH 7 0
BBX 5 10 1 0
BITMAP
D8
00
00
F8
C0
C0
F8
C0
C0
F8
ENDCHAR
STARTCHAR 00EC
ENCODING 236
SWIDTH 360 0
DWIDTH 4 0
BBX 3 11 0 0
BITMAP
80
60
00
00
60
60
60
60
60
60
60
ENDCHAR
STARTCHAR 00ED
ENCODING 237
SWIDTH 360 0
DWIDTH 4 0
BBX 3 11 1 0
BITMAP
20
C0
00
00
C0
C0
C0
C0
C0
C0
C0
ENDCHAR
STARTCHAR 00EE
ENCODING 238
SWIDTH 360 0
DWIDTH 4 0
BBX 4 11 0 0
BITMAP
60
90
00
00
60
60
60
60
60
60
60
ENDCHAR
STARTCHAR 00EF
ENCODING 239
SWIDTH 360 0
DWIDTH 4 0
BBX 4 10 0 0
BITMAP
90
00
00
60
60
60
60
60
60
60
ENDCHAR
STARTCHAR 00F0
ENCODING 240
SWIDTH 900 0
DWIDTH 10 0
BBX 7 7 1 0
BITMAP
3C
22
22
FA
22
24
3C
ENDCHAR
STARTCHAR 00F1
ENCODING 241
SWIDTH 900 0
DWIDTH 10 0
BBX 7 11 1 0
BITMAP
1A
2C
00
00
C2
E2
D2
DA
CE
C2
C2
ENDCHAR
STARTCHAR 00F2
ENCODING 242
SWIDTH 720 0
DWIDTH 8 0
BBX 6 11 1 0
BITMAP
20
18
00
00
38
CC
CC
CC
CC
48
38
ENDCHAR
STARTCHAR 00F3
ENCODING 243
SWIDTH 720 0
DWIDTH 8 0
BBX 6 11 1 0
BITMAP
18
20
00
00
38
CC
CC
CC
CC
48
38
ENDCHAR
STARTCHAR 00F4
ENCODING 244
SWIDTH 720 0
DWIDTH 8 0
BBX 6 11 1 0
BITMAP
38
CC
00
00
38
CC
CC
CC
CC
48
38
ENDCHAR
STARTCHAR 00F5
ENCODING 245
SWIDTH 720 0
DWIDTH 8 0
BBX 6 11 1 0
BITMAP
2C
D8
00
00
38
CC
CC
CC
CC
48
38
ENDCHAR
STARTCHAR 00F6
ENCODING 246
SWIDTH 720 0
DWIDTH 8 0
BBX 6 10 1 0
BITMAP
CC
00
00
38
CC
CC
CC
CC
48
38
ENDCHAR
STARTCHAR 00F7
ENCODING 247
SWIDTH 630 0
DWIDTH 7 0
BBX 5 7 1 0
BITMAP
20
00
00
F8
00
00
20
ENDCHAR
STARTCHAR 00F8
ENCODING 248
SWIDTH 900 0
DWIDTH 10 0
BBX 7 7 1 0
BITMAP
3C
CE
CE
DA
E2
24
3C
ENDCHAR
STARTCHAR 00F9
ENCODING 249
SWIDTH 720 0
DWIDTH 8 0
BBX 6 11 1 0
BITMAP
20
18
00
00
CC
CC
CC
CC
CC
CC
38
ENDCHAR
STARTCHAR 00FA
ENCODING 250
SWIDTH 720 0
DWIDTH 8 0
BBX 6 11 1 0
BITMAP
18
20
00
00
CC
CC
CC
CC
CC
CC
38
ENDCHAR
STARTCHAR 00FB
ENCODING 251
SWIDTH 720 0
DWIDTH 8 0
BBX 6 11 1 0
BITMAP
38
CC
00
00
CC
CC
CC
CC
CC
CC
38
ENDCHAR
STARTCHAR 00FC
ENCODING 252
SWIDTH 720 0
DWIDTH 8 0
BBX 6 10 1 0
BITMAP
CC
00
00
CC
CC
CC
CC
CC
CC
38
ENDCHAR
STARTCHAR 00FD
ENCODING 253
SWIDTH 900 0
DWIDTH 10 0
BBX 7 11 1 0
BITMAP
0C
18
00
00
C2
2C
10
18
18
18
18
ENDCHAR
STARTCHAR 00FE
ENCODING 254
SWIDTH 630 0
DWIDTH 7 0
BBX 5 7 1 0
BITMAP
C0
E0
D0
D8
E0
C0
C0
ENDCHAR
STARTCHAR 00FF
ENCODING 255
SWIDTH 900 0
DWIDTH 10 0
BBX 7 10 1 0
BITMAP
2C
00
00
C2
2C
10
18
18
18
18
ENDCHAR
STARTCHAR 0152
ENCODING 338
SWIDTH 900 0
DWIDTH 10 0
BBX 7 7 1 0
BITMAP
3E
D8
D8
DE
D8
58
3E
ENDCHAR
STARTCHAR 0153
ENCODING 339
SWIDTH 900 0
DWIDTH 10 0
BBX 7 7 1 0
BITMAP
3E
D8
D8
DE
D8
58
3E
ENDCHAR
STARTCHAR 0160
ENCODING 352
SWIDTH 720 0
DWIDTH 8 0
BBX 6 11 1 0
BITMAP
CC
38
00
00
3C
C0
40
38
0C
00
F8
ENDCHAR
STARTCHAR 0161
ENCODING 353
SWIDTH 720 0
DWIDTH 8 0
BBX 6 11 1 0
BITMAP
CC
38
00
00
3C
C0
40
38
0C
00
F8
ENDCHAR
STARTCHAR 0178
ENCODING 376
SWIDTH 900 0
DWIDTH 10 0
BBX 7 10 1 0
BITMAP
2C
00
00
C2
2C
10
18
18
18
18
ENDCHAR
STARTCHAR 017D
ENCODING 381
SWIDTH 630 0
DWIDTH 7 0
BBX 5 11 1 0
BITMAP
D8
20
00
00
F8
18
18
20
C0
C0
F8
ENDCHAR
STARTCHAR 017E
ENCODING 382
SWIDTH 630 0
DWIDTH 7 0
BBX 5 11 1 0
BITMAP
D8
20
00
00
F8
18
18
20
C0
C0
F8
ENDCHAR
STARTCHAR 0192
ENCODING 402
SWIDTH 900 0
DWIDTH 10 0
BBX 7 8 1 -1
BITMAP
1E
18
18
3C
20
20
20
C0
ENDCHAR
STARTCHAR 02C6
ENCODING 710
SWIDTH 630 0
DWIDTH 7 0
BBX 5 2 1 9
BITMAP
20
D8
ENDCHAR
STARTCHAR 02DC
ENCODING 732
SWIDTH 720 0
DWIDTH 8 0
BBX 6 2 1 9
BITMAP
2C
D8
ENDCHAR
STARTCHAR 0300
ENCODING 768
SWIDTH 0 0
DWIDTH 0 0
BBX 3 2 1 9
BITMAP
C0
20
ENDCHAR
STARTCHAR 0301
ENCODING 769
SWIDTH 0 0
DWIDTH 0 0
BBX 3 2 1 9
BITMAP
20
C0
ENDCHAR
STARTCHAR 0302
ENCODING 770
SWIDTH 0 0
DWIDTH 0 0
BBX 5 2 1 9
BITMAP
20
D8
ENDCHAR
STARTCHAR 0303
ENCODING 771
SWIDTH 0 0
DWIDTH 0 0
BBX 6 2 1 9
BITMAP
2C
D8
ENDCHAR
STARTCHAR 0304
ENCODING 772
SWIDTH 0 0
DWIDTH 0 0
BBX 6 1 1 6
BITMAP
FC
ENDCHAR
STARTCHAR 0308
ENCODING 776
SWIDTH 0 0
DWIDTH 0 0
BBX 5 1 1 10
BITMAP
D8
ENDCHAR
STARTCHAR 0327
ENCODING 807
SWIDTH 0 0
DWIDTH 0 0
BBX 3 2 1 -2
BITMAP
20
C0
ENDCHAR
STARTCHAR 2013
ENCODING 8211
SWIDTH 720 0
DWIDTH 8 0
BBX 6 1 1 3
BITMAP
FC
ENDCHAR
STARTCHAR 2014
ENCODING 8212
SWIDTH 990 0
DWIDTH 11 0
BBX 9 1 1 3
BITMAP
FF80
ENDCHAR
STARTCHAR 2018
ENCODING 8216
SWIDTH 360 0
DWIDTH 4 0
BBX 2 3 1 4
BITMAP
C0
C0
C0
ENDCHAR
STARTCHAR 2019
ENCODING 8217
SWIDTH 360 0
DWIDTH 4 0
BBX 2 3 1 4
BITMAP
C0
C0
C0
ENDCHAR
STARTCHAR 201A
ENCODING 8218
SWIDTH 540 0
DWIDTH 6 0
BBX 3 2 1 -1
BITMAP
20
C0
ENDCHAR
STARTCHAR 201C
ENCODING 8220
SWIDTH 630 0
DWIDTH 7 0
BBX 5 3 1 4
BITMAP
D8
D8
D8
ENDCHAR
STARTCHAR 201D
ENCODING 8221
SWIDTH 630 0
DWIDTH 7 0
BBX 5 3 1 4
BITMAP
D8
D8
D8
ENDCHAR
STARTCHAR 201E
ENCODING 8222
SWIDTH 630 0
DWIDTH 7 0
BBX 5 3 1 0
BITMAP
D8
D8
D8
ENDCHAR
STARTCHAR 2020
ENCODING 8224
SWIDTH 630 0
DWIDTH 7 0
BBX 5 7 1 0
BITMAP
20
F8
20
20
20
20
20
ENDCHAR
STARTCHAR 2021
ENCODING 8225
SWIDTH 630 0
DWIDTH 7 0
BBX 5 7 1 0
BITMAP
20
F8
20
20
F8
20
20
ENDCHAR
STARTCHAR 2022
ENCODING 8226
SWIDTH 360 0
DWIDTH 4 0
BBX 2 1 1 3
BITMAP
C0
ENDCHAR
STARTCHAR 2026
ENCODING 8230
SWIDTH 900 0
DWIDTH 10 0
BBX 7 1 1 0
BITMAP
DA
ENDCHAR
STARTCHAR 2030
ENCODING 8240
SWIDTH 990 0
DWIDTH 11 0
BBX 9 7 1 0
BITMAP
EC00
EC00
EC00
1800
2D80
2D80
2D80
ENDCHAR
STARTCHAR 2039
ENCODING 8249
SWIDTH 540 0
DWIDTH 6 0
BBX 3 4 1 2
BITMAP
20
40
C0
20
ENDCHAR
STARTCHAR 203A
ENCODING 8250
SWIDTH 540 0
DWIDTH 6 0
BBX 3 4 1 2
BITMAP
C0
40
20
C0
ENDCHAR
STARTCHAR 20AC
ENCODING 8364
SWIDTH 900 0
DWIDTH 10 0
BBX 7 7 1 0
BITMAP
1C
22
20
F8
22
10
1C
ENDCHAR
STARTCHAR 2122
ENCODING 8482
SWIDTH 1260 0
DWIDTH 14 0
BBX 11 4 1 4
BITMAP
FE60
2DA0
2DA0
2DA0
ENDCHAR
ENDFONT
